<svg width="50" height="50" viewBox="0 0 50 50" fill="none" xmlns="http://www.w3.org/2000/svg">
<rect width="50" height="50" rx="25" fill="#BC1111"/>
<path d="M37.7737 34.4998L35.254 36.4001L32.7332 38.3003L27.6905 42.0998L25.1697 44.0001L22.6478 42.0987L20.127 40.1995L17.6062 38.2992L12.5635 34.4998C11.9319 34.0242 11.6167 33.3118 11.6167 32.5995C11.6167 31.8872 11.933 31.1748 12.5635 30.6992L17.6062 34.4987L20.127 36.3989L22.6478 38.2992L25.1686 40.1995L27.6905 38.2992L30.2113 36.3989L32.7321 34.4998L37.7748 30.7003C39.0369 31.6516 39.0369 33.5485 37.7737 34.4998Z" fill="white"/>
<path d="M45.3374 21.1998L44.2191 22.0427L42.8155 23.1001L40.2947 25.0004L37.7739 26.8996L35.2531 28.7998L32.7312 30.7001L30.2104 28.7998L27.6885 26.8996L30.2104 25.0004L32.7312 23.1001L35.2531 21.2009L37.7739 19.2996L40.2947 17.4004L42.8155 19.2996L45.3374 21.1998Z" fill="white"/>
<path d="M27.6905 30.7003L30.2113 32.6006L27.6905 34.5008L25.1697 36.4L22.6489 34.5008L20.1281 32.6006L17.6073 30.7003L15.0865 28.8L12.5657 26.8997L10.0438 24.9995L7.5208 23.1003L5 21.2L7.5208 19.3008L10.0416 17.4006L12.5624 15.5003L15.0832 13.6011L17.604 11.7008L20.1248 9.80055L22.6467 7.90028L25.1675 6L27.6883 7.90028L30.2091 9.80055L27.6883 11.7008L25.1664 13.6011L22.6456 15.5014L20.1248 17.4006L17.604 19.2997C16.3408 20.251 16.3408 22.1479 17.604 23.0992L20.1248 21.2L25.1675 17.4006L27.6883 15.5003L32.731 11.7008L35.2518 13.6011L37.7715 15.5003L35.2507 17.4006L32.7299 19.3008L30.2091 21.2011L27.6883 23.1003L25.1675 25.0006L22.6467 26.9008L25.1675 28.8011L27.6905 30.7003Z" fill="white"/>
</svg>
