<svg width="233" height="50" viewBox="0 0 233 50" fill="none" xmlns="http://www.w3.org/2000/svg">
    <rect width="50" height="50" rx="25" fill="#BC1111" />
    <path
        d="M37.7742 34.4993L35.2545 36.3996L32.7337 38.2998L27.691 42.0993L25.1702 43.9996L22.6483 42.0982L20.1275 40.199L17.6067 38.2987L12.564 34.4993C11.9324 34.0237 11.6172 33.3113 11.6172 32.599C11.6172 31.8867 11.9335 31.1744 12.564 30.6987L17.6067 34.4982L20.1275 36.3985L22.6483 38.2987L25.1691 40.199L27.691 38.2987L30.2118 36.3985L32.7326 34.4993L37.7753 30.6998C39.0374 31.6511 39.0374 33.548 37.7742 34.4993Z"
        fill="white" />
    <path
        d="M45.3364 21.1998L44.2182 22.0427L42.8145 23.1001L40.2937 25.0004L37.7729 26.8996L35.2521 28.7998L32.7302 30.7001L30.2094 28.7998L27.6875 26.8996L30.2094 25.0004L32.7302 23.1001L35.2521 21.2009L37.7729 19.2996L40.2937 17.4004L42.8145 19.2996L45.3364 21.1998Z"
        fill="white" />
    <path
        d="M27.6905 30.7003L30.2113 32.6006L27.6905 34.5008L25.1697 36.4L22.6489 34.5008L20.1281 32.6006L17.6073 30.7003L15.0865 28.8L12.5657 26.8997L10.0438 24.9995L7.5208 23.1003L5 21.2L7.5208 19.3008L10.0416 17.4006L12.5624 15.5003L15.0832 13.6011L17.604 11.7008L20.1248 9.80055L22.6467 7.90028L25.1675 6L27.6883 7.90028L30.2091 9.80055L27.6883 11.7008L25.1664 13.6011L22.6456 15.5014L20.1248 17.4006L17.604 19.2997C16.3408 20.251 16.3408 22.1479 17.604 23.0992L20.1248 21.2L25.1675 17.4006L27.6883 15.5003L32.731 11.7008L35.2518 13.6011L37.7715 15.5003L35.2507 17.4006L32.7299 19.3008L30.2091 21.2011L27.6883 23.1003L25.1675 25.0006L22.6467 26.9008L25.1675 28.8011L27.6905 30.7003Z"
        fill="white" />
    <path
        d="M75.208 9.966H67.616V13.788H74.194V17.454H67.616V24.5H63.586V6.3H75.208V9.966ZM81.0623 24.89C77.9423 24.89 75.3683 22.706 75.3683 18.494C75.3683 14.282 77.9423 12.098 81.0623 12.098C83.0123 12.098 84.2343 12.904 84.9883 14.126H85.0403V12.488H88.9663V24.5H85.0403V22.862H84.9883C84.2343 24.084 83.0123 24.89 81.0623 24.89ZM82.1543 21.302C83.7403 21.302 84.9363 20.21 84.9363 18.494C84.9363 16.778 83.7403 15.686 82.1543 15.686C80.5943 15.686 79.3983 16.778 79.3983 18.494C79.3983 20.21 80.5943 21.302 82.1543 21.302ZM95.7506 24.89C94.1646 24.89 92.1366 24.552 90.3166 23.642L91.7986 20.418C93.0986 21.172 94.5806 21.796 96.0626 21.796C96.7646 21.796 97.1546 21.64 97.1546 21.25C97.1546 20.782 96.6866 20.704 96.3226 20.548L94.2166 19.716C92.2406 18.962 91.2786 17.792 91.2786 15.998C91.2786 13.528 92.9686 12.098 96.4266 12.098C97.7786 12.098 99.2346 12.332 100.769 12.826L99.6766 15.998C98.4026 15.478 97.0766 15.114 96.1146 15.114C95.3346 15.114 95.1526 15.322 95.1526 15.634C95.1526 15.998 95.4646 16.154 96.0626 16.388L98.1426 17.168C99.9626 17.844 101.055 18.806 101.055 20.834C101.055 23.694 98.9486 24.89 95.7506 24.89ZM110.326 15.764H107.856V19.378C107.856 20.496 108.142 20.86 109.156 20.86H109.598V24.5H107.96C105.516 24.5 103.93 23.33 103.93 20.444V15.764H101.59V12.488H103.93V7.678H107.856V12.488H110.326V15.764ZM123.196 20.834H130.554V24.5H119.166V6.3H130.424V9.966H123.196V12.93H129.696V16.596H123.196V20.834ZM137.277 24.89C134.157 24.89 131.583 22.706 131.583 18.494C131.583 14.282 134.157 12.098 137.277 12.098C139.227 12.098 140.449 12.904 141.203 14.126H141.255V6.3H145.181V24.5H141.255V22.862H141.203C140.449 24.084 139.227 24.89 137.277 24.89ZM138.369 21.302C139.955 21.302 141.151 20.21 141.151 18.494C141.151 16.778 139.955 15.686 138.369 15.686C136.809 15.686 135.613 16.778 135.613 18.494C135.613 20.21 136.809 21.302 138.369 21.302ZM152.014 24.89C149.466 24.89 147.464 23.33 147.464 19.898V12.488H151.52V19.04C151.52 20.782 152.326 21.458 153.496 21.458C154.874 21.458 155.758 20.496 155.758 18.286V12.488H159.684V24.5H155.836V22.628H155.784C154.926 24.006 153.782 24.89 152.014 24.89ZM168.099 24.89C164.251 24.89 161.417 22.368 161.417 18.494C161.417 14.62 164.251 12.098 168.099 12.098C169.789 12.098 171.141 12.514 172.441 13.268L170.829 16.414C170.101 15.946 169.347 15.686 168.281 15.686C166.721 15.686 165.343 16.7 165.343 18.494C165.343 20.288 166.721 21.302 168.281 21.302C169.347 21.302 170.101 21.042 170.829 20.574L172.441 23.72C171.141 24.474 169.789 24.89 168.099 24.89ZM178.283 24.89C175.163 24.89 172.589 22.706 172.589 18.494C172.589 14.282 175.163 12.098 178.283 12.098C180.233 12.098 181.455 12.904 182.209 14.126H182.261V12.488H186.187V24.5H182.261V22.862H182.209C181.455 24.084 180.233 24.89 178.283 24.89ZM179.375 21.302C180.961 21.302 182.157 20.21 182.157 18.494C182.157 16.778 180.961 15.686 179.375 15.686C177.815 15.686 176.619 16.778 176.619 18.494C176.619 20.21 177.815 21.302 179.375 21.302ZM196.273 15.764H193.803V19.378C193.803 20.496 194.089 20.86 195.103 20.86H195.545V24.5H193.907C191.463 24.5 189.877 23.33 189.877 20.444V15.764H187.537V12.488H189.877V7.678H193.803V12.488H196.273V15.764ZM201.975 6.326V10.278H197.763V6.326H201.975ZM197.919 24.5V12.488H201.845V24.5H197.919ZM210.325 12.098C214.225 12.098 217.085 14.646 217.085 18.494C217.085 22.342 214.225 24.89 210.325 24.89C206.451 24.89 203.591 22.342 203.591 18.494C203.591 14.646 206.451 12.098 210.325 12.098ZM210.325 15.686C208.765 15.686 207.517 16.778 207.517 18.494C207.517 20.21 208.765 21.302 210.325 21.302C211.911 21.302 213.133 20.21 213.133 18.494C213.133 16.778 211.911 15.686 210.325 15.686ZM226.641 12.098C229.293 12.098 231.165 13.632 231.165 17.064V24.5H227.265V18.156C227.265 16.362 226.511 15.556 225.055 15.556C223.729 15.556 222.741 16.336 222.741 18.468V24.5H218.815V12.488H222.663V14.308H222.715C223.547 12.904 224.951 12.098 226.641 12.098Z"
        fill="white" />
    <path
        d="M64.288 36.4V45.5H62.91V36.4H64.288ZM77.7962 36.4V45.5H76.3792L71.9072 38.701H71.8812V45.5H70.5292V36.4H71.9462L76.4182 43.199H76.4442V36.4H77.7962ZM89.7331 36.4V37.674H87.1721V45.5H85.8201V37.674H83.2591V36.4H89.7331ZM100.011 45.5L97.3586 41.717H96.5396V45.5H95.1876V36.4H98.2946C99.8936 36.4 101.077 37.401 101.077 39.078C101.077 40.456 100.232 41.431 98.9576 41.665L101.714 45.5H100.011ZM96.5396 37.674V40.443H98.0736C99.1656 40.443 99.6206 39.858 99.6206 39.078C99.6206 38.272 99.1656 37.674 98.0736 37.674H96.5396ZM113.531 45.5L112.66 43.238H108.682L107.811 45.5H106.329L110.047 36.4H111.295L115.013 45.5H113.531ZM109.163 41.99H112.179L110.671 38.09L109.163 41.99ZM127.672 36.4V45.5H126.255L121.783 38.701H121.757V45.5H120.405V36.4H121.822L126.294 43.199H126.32V36.4H127.672ZM135.266 44.226H139.179V45.5H133.914V36.4H139.114V37.674H135.266V39.832H138.815V41.106H135.266V44.226ZM150.782 36.4V37.674H148.221V45.5H146.869V37.674H144.308V36.4H150.782ZM166.504 36.205C167.427 36.205 168.272 36.491 168.909 36.816L168.298 38.103C167.752 37.791 167.076 37.57 166.465 37.57C165.737 37.57 165.425 37.869 165.425 38.35C165.425 38.766 165.659 39.052 166.14 39.429L167.765 40.677C168.701 41.392 169.169 42.107 169.169 43.147C169.169 44.811 167.986 45.695 166.257 45.695C165.1 45.695 164.034 45.305 163.319 44.85L163.93 43.576C164.515 43.914 165.386 44.317 166.27 44.317C167.245 44.317 167.713 43.836 167.713 43.225C167.713 42.718 167.401 42.341 166.751 41.834L165.204 40.612C164.424 40.001 163.956 39.338 163.956 38.402C163.956 37.063 164.905 36.205 166.504 36.205ZM180.849 36.4L178.002 41.847V45.5H176.637V41.86L173.79 36.4H175.363L177.3 40.417H177.339L179.276 36.4H180.849ZM188.128 36.205C189.051 36.205 189.896 36.491 190.533 36.816L189.922 38.103C189.376 37.791 188.7 37.57 188.089 37.57C187.361 37.57 187.049 37.869 187.049 38.35C187.049 38.766 187.283 39.052 187.764 39.429L189.389 40.677C190.325 41.392 190.793 42.107 190.793 43.147C190.793 44.811 189.61 45.695 187.881 45.695C186.724 45.695 185.658 45.305 184.943 44.85L185.554 43.576C186.139 43.914 187.01 44.317 187.894 44.317C188.869 44.317 189.337 43.836 189.337 43.225C189.337 42.718 189.025 42.341 188.375 41.834L186.828 40.612C186.048 40.001 185.58 39.338 185.58 38.402C185.58 37.063 186.529 36.205 188.128 36.205ZM202.018 36.4V37.674H199.457V45.5H198.105V37.674H195.544V36.4H202.018ZM208.825 44.226H212.738V45.5H207.473V36.4H212.673V37.674H208.825V39.832H212.374V41.106H208.825V44.226ZM226.641 36.4L228.851 45.5H227.408L225.9 39H225.874L223.833 44.109H222.819L220.778 39H220.752L219.244 45.5H217.801L220.011 36.4H221.116L223.313 41.99H223.339L225.536 36.4H226.641Z"
        fill="white" />
</svg>