<svg width="22" height="22" viewBox="0 0 22 22" fill="none" xmlns="http://www.w3.org/2000/svg">
<g opacity="0.6">
<path opacity="0.2" d="M17.6688 15.7618L18.3623 18.5625L15.8125 17.062L13.2627 18.5625L13.9562 15.7618L11.6875 13.8884L14.6652 13.6589L15.8125 11L16.9598 13.6589L19.9375 13.8884L17.6688 15.7618Z" fill="white"/>
<path d="M11 17.875C11 18.0573 10.9276 18.2322 10.7986 18.3611C10.6697 18.4901 10.4948 18.5625 10.3125 18.5625H3.4375C3.07283 18.5625 2.72309 18.4176 2.46523 18.1598C2.20737 17.9019 2.0625 17.5522 2.0625 17.1875V5.5C2.0625 5.13533 2.20737 4.78559 2.46523 4.52773C2.72309 4.26987 3.07283 4.125 3.4375 4.125H8.02055C8.31794 4.12574 8.60719 4.22216 8.84555 4.4L11.2295 6.1875H18.5625C18.9272 6.1875 19.2769 6.33237 19.5348 6.59023C19.7926 6.84809 19.9375 7.19783 19.9375 7.5625V10.3125C19.9375 10.4948 19.8651 10.6697 19.7361 10.7986C19.6072 10.9276 19.4323 11 19.25 11C19.0677 11 18.8928 10.9276 18.7639 10.7986C18.6349 10.6697 18.5625 10.4948 18.5625 10.3125V7.5625H11.2295C10.9321 7.56176 10.6428 7.46534 10.4045 7.2875L8.02055 5.5H3.4375V17.1875H10.3125C10.4948 17.1875 10.6697 17.2599 10.7986 17.3889C10.9276 17.5178 11 17.6927 11 17.875ZM20.3749 14.4186L18.4405 16.0162L19.0291 18.3975C19.0615 18.5288 19.0543 18.6667 19.0087 18.794C18.963 18.9213 18.8808 19.0322 18.7724 19.113C18.664 19.1938 18.5342 19.2409 18.3992 19.2483C18.2641 19.2557 18.1299 19.2231 18.0134 19.1546L15.8125 17.8595L13.6116 19.1546C13.4951 19.2231 13.3609 19.2557 13.2258 19.2483C13.0908 19.2409 12.961 19.1938 12.8526 19.113C12.7442 19.0322 12.662 18.9213 12.6163 18.794C12.5707 18.6667 12.5635 18.5288 12.5959 18.3975L13.1845 16.0162L11.2501 14.4186C11.1446 14.3313 11.0675 14.2146 11.0288 14.0833C10.9901 13.952 10.9915 13.8121 11.0327 13.6816C11.074 13.5511 11.1533 13.4358 11.2604 13.3506C11.3676 13.2654 11.4977 13.2142 11.6342 13.2034L14.1986 13.0049L15.1809 10.7276C15.2339 10.6041 15.3221 10.4988 15.4343 10.4249C15.5466 10.3509 15.6781 10.3115 15.8125 10.3115C15.9469 10.3115 16.0784 10.3509 16.1907 10.4249C16.3029 10.4988 16.3911 10.6041 16.4441 10.7276L17.4264 13.0049L19.9908 13.2034C20.1273 13.2142 20.2574 13.2654 20.3646 13.3506C20.4717 13.4358 20.551 13.5511 20.5923 13.6816C20.6335 13.8121 20.6349 13.952 20.5962 14.0833C20.5575 14.2146 20.4804 14.3313 20.3749 14.4186ZM18.1861 14.4427L16.9065 14.3438C16.7817 14.3342 16.6618 14.2908 16.5599 14.2181C16.458 14.1454 16.3778 14.0462 16.3281 13.9313L15.8125 12.7351L15.2969 13.9313C15.2472 14.0462 15.167 14.1454 15.0651 14.2181C14.9632 14.2908 14.8433 14.3342 14.7185 14.3438L13.4389 14.4427L14.3937 15.2316C14.4937 15.314 14.5684 15.423 14.6091 15.546C14.6499 15.669 14.655 15.801 14.624 15.9268L14.3232 17.1402L15.4636 16.4691C15.5693 16.4068 15.6898 16.3739 15.8125 16.3739C15.9352 16.3739 16.0557 16.4068 16.1614 16.4691L17.3018 17.1402L17.001 15.9268C16.97 15.801 16.9751 15.669 17.0159 15.546C17.0566 15.423 17.1313 15.314 17.2313 15.2316L18.1861 14.4427Z" fill="white"/>
</g>
</svg>
