<svg width="22" height="22" viewBox="0 0 22 22" fill="none" xmlns="http://www.w3.org/2000/svg">
<g opacity="0.6">
<path opacity="0.2" d="M18.5625 4.125H3.4375C3.25516 4.125 3.0803 4.19743 2.95136 4.32636C2.82243 4.4553 2.75 4.63016 2.75 4.8125V14.4375C2.75 14.6198 2.82243 14.7947 2.95136 14.9236C3.0803 15.0526 3.25516 15.125 3.4375 15.125H18.5625C18.7448 15.125 18.9197 15.0526 19.0486 14.9236C19.1776 14.7947 19.25 14.6198 19.25 14.4375V4.8125C19.25 4.63016 19.1776 4.4553 19.0486 4.32636C18.9197 4.19743 18.7448 4.125 18.5625 4.125ZM9.625 12.375V6.875L13.75 9.625L9.625 12.375Z" fill="white"/>
<path d="M14.1316 9.05266L10.0066 6.30266C9.903 6.23356 9.78262 6.19388 9.65827 6.18786C9.53392 6.18183 9.41027 6.20969 9.30051 6.26845C9.19075 6.32721 9.09901 6.41467 9.03508 6.5215C8.97115 6.62832 8.93742 6.7505 8.9375 6.875V12.375C8.93742 12.4995 8.97115 12.6217 9.03508 12.7285C9.09901 12.8353 9.19075 12.9228 9.30051 12.9816C9.41027 13.0403 9.53392 13.0682 9.65827 13.0621C9.78262 13.0561 9.903 13.0164 10.0066 12.9473L14.1316 10.1973C14.2259 10.1346 14.3032 10.0495 14.3567 9.94965C14.4102 9.8498 14.4382 9.73828 14.4382 9.625C14.4382 9.51172 14.4102 9.4002 14.3567 9.30035C14.3032 9.2005 14.2259 9.11541 14.1316 9.05266ZM10.3125 11.0902V8.16406L12.5108 9.625L10.3125 11.0902ZM18.5625 3.4375H3.4375C3.07283 3.4375 2.72309 3.58237 2.46523 3.84023C2.20737 4.09809 2.0625 4.44783 2.0625 4.8125V14.4375C2.0625 14.8022 2.20737 15.1519 2.46523 15.4098C2.72309 15.6676 3.07283 15.8125 3.4375 15.8125H18.5625C18.9272 15.8125 19.2769 15.6676 19.5348 15.4098C19.7926 15.1519 19.9375 14.8022 19.9375 14.4375V4.8125C19.9375 4.44783 19.7926 4.09809 19.5348 3.84023C19.2769 3.58237 18.9272 3.4375 18.5625 3.4375ZM18.5625 14.4375H3.4375V4.8125H18.5625V14.4375ZM19.9375 17.875C19.9375 18.0573 19.8651 18.2322 19.7361 18.3611C19.6072 18.4901 19.4323 18.5625 19.25 18.5625H2.75C2.56766 18.5625 2.3928 18.4901 2.26386 18.3611C2.13493 18.2322 2.0625 18.0573 2.0625 17.875C2.0625 17.6927 2.13493 17.5178 2.26386 17.3889C2.3928 17.2599 2.56766 17.1875 2.75 17.1875H19.25C19.4323 17.1875 19.6072 17.2599 19.7361 17.3889C19.8651 17.5178 19.9375 17.6927 19.9375 17.875Z" fill="white"/>
</g>
</svg>
