<svg width="22" height="22" viewBox="0 0 22 22" fill="none" xmlns="http://www.w3.org/2000/svg">
<g opacity="0.6">
<path opacity="0.2" d="M17.1875 13.0625L13.75 16.5L8.25 15.125L3.4375 11.6875L6.1875 6.1875L11 4.8125L15.8125 6.1875H12.375L8.45109 9.99367C8.37815 10.0666 8.32254 10.155 8.28839 10.2523C8.25424 10.3496 8.24242 10.4533 8.25381 10.5559C8.2652 10.6584 8.29951 10.757 8.35419 10.8444C8.40886 10.9319 8.48252 11.0059 8.56969 11.061C10.0745 12.0227 12.1172 11.9565 13.75 10.3125L17.1875 13.0625Z" fill="white"/>
<path d="M10.2918 18.7297C10.2546 18.8784 10.1688 19.0105 10.0479 19.1048C9.9271 19.1992 9.7782 19.2505 9.62489 19.2505C9.56696 19.2508 9.50923 19.2438 9.45301 19.2299L6.70301 18.5424C6.62645 18.5231 6.55378 18.4909 6.48817 18.447L4.42567 17.072C4.27399 16.9708 4.16872 16.8135 4.13302 16.6347C4.09733 16.4558 4.13412 16.2702 4.23532 16.1185C4.33652 15.9668 4.49382 15.8615 4.67263 15.8259C4.85145 15.7902 5.03712 15.8269 5.1888 15.9281L7.15161 17.237L9.78645 17.8961C9.87449 17.9175 9.95743 17.956 10.0305 18.0095C10.1036 18.063 10.1654 18.1304 10.2124 18.2079C10.2593 18.2853 10.2905 18.3713 10.3042 18.4609C10.3178 18.5504 10.3136 18.6418 10.2918 18.7297ZM21.6948 10.4402C21.6384 10.6115 21.5486 10.77 21.4306 10.9064C21.3126 11.0429 21.1687 11.1546 21.0073 11.2351L18.9723 12.2526L14.2389 16.9869C14.1549 17.0708 14.0505 17.1316 13.9361 17.1632C13.8216 17.1948 13.7009 17.1962 13.5857 17.1674L8.08575 15.7924C8.00211 15.7714 7.92312 15.7349 7.85286 15.6849L3.08161 12.2784L0.995046 11.2351C0.668944 11.0721 0.420933 10.7862 0.305547 10.4404C0.19016 10.0946 0.216845 9.71705 0.379734 9.39088L2.51528 5.12065C2.6783 4.79455 2.96415 4.54653 3.30999 4.43115C3.65583 4.31576 4.03333 4.34245 4.3595 4.50534L6.25528 5.45065L10.81 4.14955C10.9335 4.11421 11.0645 4.11421 11.1881 4.14955L15.7428 5.45065L17.6386 4.50534C17.9647 4.34245 18.3422 4.31576 18.6881 4.43115C19.0339 4.54653 19.3198 4.79455 19.4828 5.12065L21.6183 9.39088C21.6998 9.55205 21.7485 9.72777 21.7616 9.90787C21.7747 10.088 21.752 10.2689 21.6948 10.4402ZM17.7262 11.5522L15.3879 6.87549H12.6533L8.93739 10.4849C10.0254 11.1801 11.7312 11.3717 13.2618 9.82916C13.3813 9.70868 13.5412 9.63666 13.7106 9.62699C13.8801 9.61731 14.0471 9.67065 14.1796 9.77674L17.1367 12.146L17.7262 11.5522ZM1.6095 10.0053L3.12973 10.7659L5.26528 6.49565L3.74505 5.7351L1.6095 10.0053ZM16.1561 13.1197L13.7748 11.2128C12.0956 12.5878 9.96348 12.7691 8.19661 11.6424C8.02281 11.5319 7.87606 11.3837 7.76722 11.2088C7.65838 11.0339 7.59022 10.8368 7.56778 10.6321C7.54534 10.4273 7.5692 10.2201 7.63758 10.0258C7.70596 9.83151 7.81713 9.65505 7.96286 9.50948C7.96493 9.50697 7.96723 9.50467 7.96973 9.5026L11.8249 5.76346L10.9999 5.52799L6.66692 6.76635L4.31481 11.4697L8.54294 14.4904L13.5393 15.7391L16.1561 13.1197ZM20.3877 10.0053L18.2547 5.7351L16.7345 6.49565L18.87 10.7659L20.3877 10.0053Z" fill="white"/>
</g>
</svg>
