<svg width="22" height="22" viewBox="0 0 22 22" fill="none" xmlns="http://www.w3.org/2000/svg">
<g opacity="0.6">
<path opacity="0.2" d="M11.6875 9.28125C11.6875 10.1651 11.4254 11.0291 10.9344 11.764C10.4433 12.4988 9.74543 13.0716 8.92887 13.4098C8.11231 13.7481 7.21379 13.8366 6.34694 13.6641C5.48009 13.4917 4.68383 13.0661 4.05887 12.4411C3.4339 11.8162 3.0083 11.0199 2.83587 10.1531C2.66344 9.28621 2.75194 8.38769 3.09017 7.57113C3.42839 6.75458 4.00117 6.05665 4.73605 5.56562C5.47093 5.07459 6.33492 4.8125 7.21875 4.8125C8.40394 4.8125 9.54058 5.28331 10.3786 6.12137C11.2167 6.95942 11.6875 8.09606 11.6875 9.28125Z" fill="white"/>
<path d="M10.0759 13.5714C10.9974 12.958 11.6969 12.0643 12.0712 11.0225C12.4454 9.98077 12.4744 8.84623 12.154 7.78668C11.8336 6.72713 11.1807 5.79883 10.2918 5.13905C9.40301 4.47928 8.32546 4.12305 7.21852 4.12305C6.11158 4.12305 5.03402 4.47928 4.1452 5.13905C3.25637 5.79883 2.60347 6.72713 2.28303 7.78668C1.9626 8.84623 1.99165 9.98077 2.36588 11.0225C2.74012 12.0643 3.43967 12.958 4.3611 13.5714C2.69433 14.1857 1.27087 15.3225 0.303127 16.8121C0.252266 16.8877 0.216937 16.9726 0.199196 17.062C0.181454 17.1514 0.181652 17.2434 0.19978 17.3327C0.217908 17.422 0.253602 17.5067 0.30479 17.5821C0.355977 17.6575 0.421636 17.7219 0.49795 17.7717C0.574264 17.8215 0.65971 17.8556 0.749322 17.8721C0.838934 17.8885 0.930924 17.887 1.01995 17.8676C1.10897 17.8482 1.19324 17.8113 1.26788 17.759C1.34251 17.7068 1.40601 17.6402 1.45469 17.5632C2.07893 16.6031 2.93312 15.8141 3.93969 15.2679C4.94626 14.7218 6.07332 14.4357 7.21852 14.4357C8.36372 14.4357 9.49078 14.7218 10.4973 15.2679C11.5039 15.8141 12.3581 16.6031 12.9823 17.5632C13.0832 17.7131 13.2389 17.8172 13.416 17.8532C13.593 17.8891 13.777 17.8539 13.9283 17.7552C14.0796 17.6566 14.186 17.5023 14.2245 17.3258C14.263 17.1493 14.2304 16.9648 14.1339 16.8121C13.1662 15.3225 11.7427 14.1857 10.0759 13.5714ZM3.43727 9.28139C3.43727 8.53353 3.65903 7.80246 4.07452 7.18064C4.49001 6.55882 5.08056 6.07416 5.7715 5.78797C6.46243 5.50178 7.22271 5.42689 7.9562 5.5728C8.68969 5.7187 9.36345 6.07882 9.89227 6.60764C10.4211 7.13646 10.7812 7.81021 10.9271 8.5437C11.073 9.27719 10.9981 10.0375 10.7119 10.7284C10.4257 11.4193 9.94109 12.0099 9.31927 12.4254C8.69744 12.8409 7.96638 13.0626 7.21852 13.0626C6.21602 13.0615 5.2549 12.6628 4.54603 11.9539C3.83715 11.245 3.43841 10.2839 3.43727 9.28139ZM21.4962 17.7634C21.3435 17.863 21.1574 17.8979 20.979 17.8603C20.8006 17.8228 20.6445 17.7159 20.5448 17.5632C19.9214 16.6025 19.0673 15.8132 18.0605 15.2673C17.0537 14.7213 15.9263 14.4361 14.781 14.4376C14.5987 14.4376 14.4238 14.3652 14.2949 14.2363C14.166 14.1073 14.0935 13.9325 14.0935 13.7501C14.0935 13.5678 14.166 13.3929 14.2949 13.264C14.4238 13.1351 14.5987 13.0626 14.781 13.0626C15.3379 13.0621 15.8877 12.9386 16.3913 12.7009C16.8949 12.4633 17.3398 12.1173 17.6941 11.6878C18.0485 11.2583 18.3037 10.7558 18.4413 10.2162C18.579 9.67663 18.5958 9.11332 18.4905 8.56652C18.3852 8.01971 18.1605 7.5029 17.8323 7.05303C17.5042 6.60315 17.0807 6.2313 16.5922 5.96406C16.1036 5.69681 15.5621 5.54077 15.0063 5.50707C14.4504 5.47337 13.894 5.56285 13.3768 5.76912C13.2925 5.80558 13.2017 5.82476 13.1098 5.82554C13.0179 5.82632 12.9268 5.80867 12.8419 5.77364C12.757 5.73862 12.6799 5.68692 12.6153 5.62161C12.5507 5.5563 12.4998 5.4787 12.4657 5.3934C12.4315 5.30809 12.4149 5.21681 12.4166 5.12495C12.4184 5.03309 12.4385 4.94252 12.4759 4.85857C12.5132 4.77463 12.567 4.69903 12.6341 4.63623C12.7011 4.57343 12.7801 4.52471 12.8663 4.49295C14.0501 4.02085 15.3667 4.00387 16.5623 4.44526C17.7578 4.88666 18.7475 5.75516 19.3405 6.88323C19.9335 8.0113 20.0877 9.319 19.7734 10.5541C19.4591 11.7891 18.6985 12.864 17.6384 13.5714C19.3052 14.1857 20.7287 15.3225 21.6964 16.8121C21.796 16.9648 21.8308 17.1508 21.7933 17.3292C21.7557 17.5076 21.6489 17.6638 21.4962 17.7634Z" fill="white"/>
</g>
</svg>
