<svg width="22" height="22" viewBox="0 0 22 22" fill="none" xmlns="http://www.w3.org/2000/svg">
<g opacity="0.6">
<path opacity="0.2" d="M18.5625 9.92954V17.8753C18.5625 18.0577 18.4901 18.2325 18.3611 18.3615C18.2322 18.4904 18.0573 18.5628 17.875 18.5628H13.75C13.5677 18.5628 13.3928 18.4904 13.2639 18.3615C13.1349 18.2325 13.0625 18.0577 13.0625 17.8753V13.7503C13.0625 13.568 12.9901 13.3931 12.8611 13.2642C12.7322 13.1353 12.5573 13.0628 12.375 13.0628H9.625C9.44266 13.0628 9.2678 13.1353 9.13886 13.2642C9.00993 13.3931 8.9375 13.568 8.9375 13.7503V17.8753C8.9375 18.0577 8.86507 18.2325 8.73614 18.3615C8.6072 18.4904 8.43234 18.5628 8.25 18.5628H4.125C3.94266 18.5628 3.7678 18.4904 3.63886 18.3615C3.50993 18.2325 3.4375 18.0577 3.4375 17.8753V9.92954C3.43751 9.83373 3.45754 9.73899 3.49632 9.65137C3.53509 9.56376 3.59175 9.48522 3.66266 9.42079L10.5377 2.92907C10.6642 2.81385 10.8293 2.75 11.0004 2.75C11.1716 2.75 11.3366 2.81385 11.4632 2.92907L18.3382 9.42079C18.409 9.4853 18.4655 9.56387 18.5041 9.65148C18.5427 9.73909 18.5626 9.8338 18.5625 9.92954Z" fill="white"/>
<path d="M18.8057 8.91823L11.9307 2.43166C11.9273 2.42873 11.9242 2.42557 11.9213 2.42221C11.6681 2.19201 11.3383 2.06445 10.9961 2.06445C10.654 2.06445 10.3241 2.19201 10.071 2.42221L10.0616 2.43166L3.1943 8.91823C3.05422 9.04704 2.9424 9.20352 2.86592 9.37778C2.78944 9.55203 2.74997 9.74027 2.75 9.93057V17.8755C2.75 18.2402 2.89487 18.5899 3.15273 18.8478C3.41059 19.1056 3.76033 19.2505 4.125 19.2505H8.25C8.61467 19.2505 8.96441 19.1056 9.22227 18.8478C9.48013 18.5899 9.625 18.2402 9.625 17.8755V13.7505H12.375V17.8755C12.375 18.2402 12.5199 18.5899 12.7777 18.8478C13.0356 19.1056 13.3853 19.2505 13.75 19.2505H17.875C18.2397 19.2505 18.5894 19.1056 18.8473 18.8478C19.1051 18.5899 19.25 18.2402 19.25 17.8755V9.93057C19.25 9.74027 19.2106 9.55203 19.1341 9.37778C19.0576 9.20352 18.9458 9.04704 18.8057 8.91823ZM17.875 17.8755H13.75V13.7505C13.75 13.3858 13.6051 13.0361 13.3473 12.7782C13.0894 12.5204 12.7397 12.3755 12.375 12.3755H9.625C9.26033 12.3755 8.91059 12.5204 8.65273 12.7782C8.39487 13.0361 8.25 13.3858 8.25 13.7505V17.8755H4.125V9.93057L4.13445 9.92198L11 3.43799L17.8664 9.92026L17.8759 9.92885L17.875 17.8755Z" fill="white"/>
</g>
</svg>
