<svg width="22" height="22" viewBox="0 0 22 22" fill="none" xmlns="http://www.w3.org/2000/svg">
<g opacity="0.6">
<path opacity="0.2" d="M17.875 4.125V18.5625C17.875 18.7448 17.8026 18.9197 17.6736 19.0486C17.5447 19.1776 17.3698 19.25 17.1875 19.25H4.8125C4.63016 19.25 4.4553 19.1776 4.32636 19.0486C4.19743 18.9197 4.125 18.7448 4.125 18.5625V4.125C4.125 3.94266 4.19743 3.7678 4.32636 3.63886C4.4553 3.50993 4.63016 3.4375 4.8125 3.4375H8.25C7.80279 4.03202 7.56144 4.75606 7.5625 5.5V6.1875H14.4375V5.5C14.4386 4.75606 14.1972 4.03202 13.75 3.4375H17.1875C17.3698 3.4375 17.5447 3.50993 17.6736 3.63886C17.8026 3.7678 17.875 3.94266 17.875 4.125Z" fill="white"/>
<path d="M14.4375 13.0624C14.4375 13.2447 14.3651 13.4196 14.2361 13.5485C14.1072 13.6774 13.9323 13.7499 13.75 13.7499H8.25C8.06766 13.7499 7.8928 13.6774 7.76386 13.5485C7.63493 13.4196 7.5625 13.2447 7.5625 13.0624C7.5625 12.88 7.63493 12.7052 7.76386 12.5762C7.8928 12.4473 8.06766 12.3749 8.25 12.3749H13.75C13.9323 12.3749 14.1072 12.4473 14.2361 12.5762C14.3651 12.7052 14.4375 12.88 14.4375 13.0624ZM13.75 9.62488H8.25C8.06766 9.62488 7.8928 9.69731 7.76386 9.82624C7.63493 9.95517 7.5625 10.13 7.5625 10.3124C7.5625 10.4947 7.63493 10.6696 7.76386 10.7985C7.8928 10.9274 8.06766 10.9999 8.25 10.9999H13.75C13.9323 10.9999 14.1072 10.9274 14.2361 10.7985C14.3651 10.6696 14.4375 10.4947 14.4375 10.3124C14.4375 10.13 14.3651 9.95517 14.2361 9.82624C14.1072 9.69731 13.9323 9.62488 13.75 9.62488ZM18.5625 4.12488V18.5624C18.5625 18.927 18.4176 19.2768 18.1598 19.5346C17.9019 19.7925 17.5522 19.9374 17.1875 19.9374H4.8125C4.44783 19.9374 4.09809 19.7925 3.84023 19.5346C3.58237 19.2768 3.4375 18.927 3.4375 18.5624V4.12488C3.4375 3.7602 3.58237 3.41047 3.84023 3.1526C4.09809 2.89474 4.44783 2.74988 4.8125 2.74988H7.92859C8.31489 2.31737 8.78817 1.97133 9.31746 1.7344C9.84674 1.49747 10.4201 1.375 11 1.375C11.5799 1.375 12.1533 1.49747 12.6825 1.7344C13.2118 1.97133 13.6851 2.31737 14.0714 2.74988H17.1875C17.5522 2.74988 17.9019 2.89474 18.1598 3.1526C18.4176 3.41047 18.5625 3.7602 18.5625 4.12488ZM8.25 5.49988H13.75C13.75 4.77053 13.4603 4.07106 12.9445 3.55533C12.4288 3.03961 11.7293 2.74988 11 2.74988C10.2707 2.74988 9.57118 3.03961 9.05546 3.55533C8.53973 4.07106 8.25 4.77053 8.25 5.49988ZM17.1875 4.12488H14.8887C15.0451 4.56644 15.125 5.03144 15.125 5.49988V6.18738C15.125 6.36971 15.0526 6.54458 14.9236 6.67351C14.7947 6.80244 14.6198 6.87488 14.4375 6.87488H7.5625C7.38016 6.87488 7.2053 6.80244 7.07636 6.67351C6.94743 6.54458 6.875 6.36971 6.875 6.18738V5.49988C6.87502 5.03144 6.95494 4.56644 7.11133 4.12488H4.8125V18.5624H17.1875V4.12488Z" fill="white"/>
</g>
</svg>
