<svg width="22" height="22" viewBox="0 0 22 22" fill="none" xmlns="http://www.w3.org/2000/svg">
<g opacity="0.6">
<path opacity="0.2" d="M11 6.875C11 7.28292 10.879 7.68169 10.6524 8.02086C10.4258 8.36004 10.1037 8.6244 9.72679 8.7805C9.34991 8.93661 8.93521 8.97745 8.53513 8.89787C8.13504 8.81829 7.76754 8.62185 7.47909 8.33341C7.19065 8.04496 6.99421 7.67746 6.91463 7.27737C6.83505 6.87729 6.87589 6.46259 7.032 6.08572C7.18811 5.70884 7.45246 5.38672 7.79164 5.16009C8.13081 4.93346 8.52958 4.8125 8.9375 4.8125C9.48451 4.8125 10.0091 5.0298 10.3959 5.41659C10.7827 5.80339 11 6.32799 11 6.875ZM14.4375 13.0625C14.0296 13.0625 13.6308 13.1835 13.2916 13.4101C12.9525 13.6367 12.6881 13.9588 12.532 14.3357C12.3759 14.7126 12.3351 15.1273 12.4146 15.5274C12.4942 15.9275 12.6906 16.295 12.9791 16.5834C13.2675 16.8719 13.635 17.0683 14.0351 17.1479C14.4352 17.2275 14.8499 17.1866 15.2268 17.0305C15.6037 16.8744 15.9258 16.61 16.1524 16.2709C16.379 15.9317 16.5 15.5329 16.5 15.125C16.5 14.578 16.2827 14.0534 15.8959 13.6666C15.5091 13.2798 14.9845 13.0625 14.4375 13.0625Z" fill="white"/>
<path d="M3.4375 7.56203H6.27344C6.42489 8.15357 6.76892 8.67787 7.25128 9.05229C7.73363 9.4267 8.32688 9.62992 8.9375 9.62992C9.54812 9.62992 10.1414 9.4267 10.6237 9.05229C11.1061 8.67787 11.4501 8.15357 11.6016 7.56203H18.5625C18.7448 7.56203 18.9197 7.4896 19.0486 7.36067C19.1776 7.23174 19.25 7.05687 19.25 6.87453C19.25 6.6922 19.1776 6.51733 19.0486 6.3884C18.9197 6.25947 18.7448 6.18703 18.5625 6.18703H11.6016C11.4501 5.5955 11.1061 5.07119 10.6237 4.69678C10.1414 4.32237 9.54812 4.11914 8.9375 4.11914C8.32688 4.11914 7.73363 4.32237 7.25128 4.69678C6.76892 5.07119 6.42489 5.5955 6.27344 6.18703H3.4375C3.25516 6.18703 3.0803 6.25947 2.95136 6.3884C2.82243 6.51733 2.75 6.6922 2.75 6.87453C2.75 7.05687 2.82243 7.23174 2.95136 7.36067C3.0803 7.4896 3.25516 7.56203 3.4375 7.56203ZM8.9375 5.49953C9.20945 5.49953 9.47529 5.58018 9.70141 5.73126C9.92753 5.88235 10.1038 6.0971 10.2078 6.34834C10.3119 6.59959 10.3391 6.87606 10.2861 7.14278C10.233 7.40951 10.1021 7.65451 9.90977 7.8468C9.71747 8.0391 9.47247 8.17006 9.20575 8.22311C8.93903 8.27617 8.66256 8.24894 8.41131 8.14487C8.16006 8.0408 7.94532 7.86456 7.79423 7.63844C7.64314 7.41232 7.5625 7.14648 7.5625 6.87453C7.5625 6.50986 7.70737 6.16012 7.96523 5.90226C8.22309 5.6444 8.57283 5.49953 8.9375 5.49953ZM18.5625 14.437H17.1016C16.9501 13.8455 16.6061 13.3212 16.1237 12.9468C15.6414 12.5724 15.0481 12.3691 14.4375 12.3691C13.8269 12.3691 13.2336 12.5724 12.7513 12.9468C12.2689 13.3212 11.9249 13.8455 11.7734 14.437H3.4375C3.25516 14.437 3.0803 14.5095 2.95136 14.6384C2.82243 14.7673 2.75 14.9422 2.75 15.1245C2.75 15.3069 2.82243 15.4817 2.95136 15.6107C3.0803 15.7396 3.25516 15.812 3.4375 15.812H11.7734C11.9249 16.4036 12.2689 16.9279 12.7513 17.3023C13.2336 17.6767 13.8269 17.8799 14.4375 17.8799C15.0481 17.8799 15.6414 17.6767 16.1237 17.3023C16.6061 16.9279 16.9501 16.4036 17.1016 15.812H18.5625C18.7448 15.812 18.9197 15.7396 19.0486 15.6107C19.1776 15.4817 19.25 15.3069 19.25 15.1245C19.25 14.9422 19.1776 14.7673 19.0486 14.6384C18.9197 14.5095 18.7448 14.437 18.5625 14.437ZM14.4375 16.4995C14.1656 16.4995 13.8997 16.4189 13.6736 16.2678C13.4475 16.1167 13.2712 15.902 13.1672 15.6507C13.0631 15.3995 13.0359 15.123 13.0889 14.8563C13.142 14.5896 13.2729 14.3446 13.4652 14.1523C13.6575 13.96 13.9025 13.829 14.1693 13.776C14.436 13.7229 14.7124 13.7501 14.9637 13.8542C15.2149 13.9583 15.4297 14.1345 15.5808 14.3606C15.7319 14.5867 15.8125 14.8526 15.8125 15.1245C15.8125 15.4892 15.6676 15.8389 15.4098 16.0968C15.1519 16.3547 14.8022 16.4995 14.4375 16.4995Z" fill="white"/>
</g>
</svg>
