<svg width="22" height="22" viewBox="0 0 22 22" fill="none" xmlns="http://www.w3.org/2000/svg">
<g opacity="0.6">
<path opacity="0.2" d="M19.25 5.5L11 8.25L2.75 5.5L11 2.75L19.25 5.5Z" fill="white"/>
<path d="M19.4674 4.84779L11.2174 2.09779C11.0763 2.05074 10.9237 2.05074 10.7826 2.09779L2.53258 4.84779C2.40779 4.88987 2.29772 4.96692 2.21545 5.06975C2.13319 5.17258 2.08219 5.29688 2.06852 5.42786C2.06448 5.45171 2.06247 5.47586 2.0625 5.50005V12.3751C2.0625 12.5574 2.13493 12.7323 2.26386 12.8612C2.3928 12.9901 2.56766 13.0626 2.75 13.0626C2.93234 13.0626 3.1072 12.9901 3.23614 12.8612C3.36507 12.7323 3.4375 12.5574 3.4375 12.3751V6.45396L6.32414 7.4156C5.5572 8.65465 5.31331 10.1474 5.64604 11.5661C5.97876 12.9848 6.8609 14.2135 8.09875 14.9824C6.55188 15.5891 5.21469 16.6865 4.23672 18.187C4.18586 18.2626 4.15053 18.3475 4.13279 18.4369C4.11505 18.5263 4.11524 18.6183 4.13337 18.7076C4.1515 18.7969 4.18719 18.8817 4.23838 18.957C4.28957 19.0324 4.35523 19.0969 4.43154 19.1466C4.50786 19.1964 4.5933 19.2305 4.68291 19.247C4.77253 19.2634 4.86452 19.2619 4.95354 19.2425C5.04256 19.2231 5.12684 19.1862 5.20147 19.134C5.2761 19.0817 5.3396 19.0151 5.38828 18.9381C6.68336 16.9512 8.72867 15.8126 11 15.8126C13.2713 15.8126 15.3166 16.9512 16.6117 18.9381C16.7126 19.088 16.8683 19.1921 17.0453 19.2281C17.2224 19.264 17.4064 19.2288 17.5577 19.1302C17.709 19.0315 17.8154 18.8772 17.8539 18.7007C17.8923 18.5242 17.8598 18.3397 17.7633 18.187C16.7853 16.6865 15.443 15.5891 13.9013 14.9824C15.1379 14.2136 16.0192 12.9857 16.3519 11.568C16.6846 10.1503 16.4414 8.65858 15.6759 7.41989L19.4674 6.15661C19.6043 6.111 19.7234 6.02346 19.8078 5.9064C19.8922 5.78933 19.9377 5.64867 19.9377 5.50435C19.9377 5.36003 19.8922 5.21937 19.8078 5.1023C19.7234 4.98523 19.6043 4.89769 19.4674 4.85208V4.84779ZM15.125 10.3126C15.1252 10.9647 14.9707 11.6076 14.6744 12.1885C14.378 12.7694 13.9481 13.2717 13.4199 13.6543C12.8918 14.0369 12.2805 14.2888 11.6362 14.3894C10.9918 14.4899 10.3328 14.4363 9.71321 14.2329C9.09362 14.0294 8.53108 13.682 8.07176 13.2191C7.61244 12.7561 7.26942 12.1909 7.07086 11.5697C6.8723 10.9485 6.82384 10.2891 6.92947 9.64559C7.0351 9.00206 7.2918 8.39274 7.67852 7.86763L10.7826 8.89888C10.9237 8.94593 11.0763 8.94593 11.2174 8.89888L14.3215 7.86763C14.8438 8.57575 15.1254 9.43264 15.125 10.3126ZM11 7.5256L4.92422 5.50005L11 3.4745L17.0758 5.50005L11 7.5256Z" fill="white"/>
</g>
</svg>
