<svg width="22" height="22" viewBox="0 0 22 22" fill="none" xmlns="http://www.w3.org/2000/svg">
<g opacity="0.6">
<path opacity="0.2" d="M19.25 5.5V16.5C19.25 16.6823 19.1776 16.8572 19.0486 16.9861C18.9197 17.1151 18.7448 17.1875 18.5625 17.1875H3.4375C3.25516 17.1875 3.0803 17.1151 2.95136 16.9861C2.82243 16.8572 2.75 16.6823 2.75 16.5V5.5C2.75 5.31766 2.82243 5.1428 2.95136 5.01386C3.0803 4.88493 3.25516 4.8125 3.4375 4.8125H18.5625C18.7448 4.8125 18.9197 4.88493 19.0486 5.01386C19.1776 5.1428 19.25 5.31766 19.25 5.5Z" fill="white"/>
<path d="M18.5625 4.125H3.4375C3.07283 4.125 2.72309 4.26987 2.46523 4.52773C2.20737 4.78559 2.0625 5.13533 2.0625 5.5V16.5C2.0625 16.8647 2.20737 17.2144 2.46523 17.4723C2.72309 17.7301 3.07283 17.875 3.4375 17.875H18.5625C18.9272 17.875 19.2769 17.7301 19.5348 17.4723C19.7926 17.2144 19.9375 16.8647 19.9375 16.5V5.5C19.9375 5.13533 19.7926 4.78559 19.5348 4.52773C19.2769 4.26987 18.9272 4.125 18.5625 4.125ZM8.9375 12.375V9.625H13.0625V12.375H8.9375ZM13.0625 13.75V16.5H8.9375V13.75H13.0625ZM3.4375 9.625H7.5625V12.375H3.4375V9.625ZM8.9375 8.25V5.5H13.0625V8.25H8.9375ZM14.4375 9.625H18.5625V12.375H14.4375V9.625ZM18.5625 8.25H14.4375V5.5H18.5625V8.25ZM7.5625 5.5V8.25H3.4375V5.5H7.5625ZM3.4375 13.75H7.5625V16.5H3.4375V13.75ZM18.5625 16.5H14.4375V13.75H18.5625V16.5Z" fill="white"/>
</g>
</svg>
