<svg width="22" height="22" viewBox="0 0 22 22" fill="none" xmlns="http://www.w3.org/2000/svg">
<g opacity="0.6">
<path opacity="0.2" d="M18.5625 9.7168V14.2904C18.5629 14.4584 18.5017 14.6207 18.3906 14.7467C17.4195 15.8287 15.0477 17.8748 11 17.8748C6.95235 17.8748 4.58219 15.8287 3.60938 14.7467C3.49825 14.6207 3.43711 14.4584 3.4375 14.2904V9.7168L11 13.7498L18.5625 9.7168Z" fill="white"/>
<path d="M21.6354 7.64317L11.3229 2.14317C11.2234 2.0902 11.1125 2.0625 10.9998 2.0625C10.8871 2.0625 10.7761 2.0902 10.6767 2.14317L0.36416 7.64317C0.254164 7.70179 0.162173 7.78921 0.0980289 7.89608C0.0338846 8.00295 0 8.12524 0 8.24989C0 8.37453 0.0338846 8.49682 0.0980289 8.60369C0.162173 8.71056 0.254164 8.79798 0.36416 8.8566L2.74978 10.1293V14.2904C2.74907 14.6281 2.87335 14.9541 3.09869 15.2057C4.22447 16.4595 6.74674 18.5624 10.9998 18.5624C12.41 18.574 13.8096 18.3186 15.1248 17.8096V20.6249C15.1248 20.8072 15.1972 20.9821 15.3261 21.111C15.4551 21.24 15.6299 21.3124 15.8123 21.3124C15.9946 21.3124 16.1695 21.24 16.2984 21.111C16.4274 20.9821 16.4998 20.8072 16.4998 20.6249V17.1453C17.3963 16.6278 18.2064 15.9733 18.9009 15.2057C19.1262 14.9541 19.2505 14.6281 19.2498 14.2904V10.1293L21.6354 8.8566C21.7454 8.79798 21.8374 8.71056 21.9015 8.60369C21.9657 8.49682 21.9996 8.37453 21.9996 8.24989C21.9996 8.12524 21.9657 8.00295 21.9015 7.89608C21.8374 7.78921 21.7454 7.70179 21.6354 7.64317ZM10.9998 17.1874C7.28127 17.1874 5.09416 15.3707 4.12478 14.2904V10.8624L10.6767 14.3566C10.7761 14.4096 10.8871 14.4373 10.9998 14.4373C11.1125 14.4373 11.2234 14.4096 11.3229 14.3566L15.1248 12.3293V16.3117C14.042 16.817 12.6773 17.1874 10.9998 17.1874ZM17.8748 14.287C17.4627 14.7443 17.0016 15.155 16.4998 15.5116V11.5954L17.8748 10.8624V14.287ZM16.156 10.2213L16.1371 10.2101L11.3246 7.64317C11.1641 7.56116 10.9777 7.5455 10.8057 7.59957C10.6337 7.65364 10.4898 7.77312 10.4051 7.93225C10.3203 8.09139 10.3015 8.27744 10.3526 8.45034C10.4037 8.62324 10.5207 8.76914 10.6784 8.8566L14.6951 10.9999L10.9998 12.9704L2.14822 8.24989L10.9998 3.52934L19.8513 8.24989L16.156 10.2213Z" fill="white"/>
</g>
</svg>
